<svg width="131" height="39" viewBox="0 0 131 39" fill="none" xmlns="http://www.w3.org/2000/svg">
<path d="M10.368 35.8C9.504 35.8 8.528 35.704 7.44 35.512C6.352 35.352 5.296 35.048 4.272 34.6C3.248 34.184 2.4 33.608 1.728 32.872C1.056 32.136 0.72 31.208 0.72 30.088C0.72 29.064 1.024 28.088 1.632 27.16C2.272 26.232 3.056 25.368 3.984 24.568C4.944 23.736 5.92 23.016 6.912 22.408C7.936 21.768 8.832 21.256 9.6 20.872C9.856 20.744 10.144 20.616 10.464 20.488C10.784 20.36 11.088 20.296 11.376 20.296C11.44 20.296 11.504 20.312 11.568 20.344C11.664 20.376 11.712 20.424 11.712 20.488C11.712 20.616 11.616 20.728 11.424 20.824C11.264 20.92 11.136 21 11.04 21.064C10.624 21.256 10.192 21.448 9.744 21.64C9.328 21.8 8.912 22.008 8.496 22.264C7.664 22.712 6.8 23.288 5.904 23.992C5.008 24.696 4.256 25.496 3.648 26.392C3.04 27.256 2.736 28.216 2.736 29.272C2.736 30.456 3.104 31.368 3.84 32.008C4.608 32.68 5.536 33.144 6.624 33.4C7.712 33.688 8.72 33.832 9.648 33.832C10.864 33.832 12.096 33.704 13.344 33.448C14.592 33.192 15.808 32.888 16.992 32.536C17.824 32.28 18.784 31.88 19.872 31.336C20.96 30.824 22.08 30.216 23.232 29.512C24.384 28.808 25.456 28.024 26.448 27.16C27.44 26.296 28.24 25.384 28.848 24.424C29.456 23.464 29.76 22.488 29.76 21.496C29.76 20.44 29.424 19.544 28.752 18.808C28.112 18.072 27.328 17.448 26.4 16.936C25.472 16.424 24.592 16.024 23.76 15.736C23.248 15.512 22.704 15.32 22.128 15.16C21.552 15 20.992 14.824 20.448 14.632C19.904 14.472 19.216 14.264 18.384 14.008C17.584 13.752 16.864 13.4 16.224 12.952C15.616 12.504 15.264 11.928 15.168 11.224C15.136 11.128 15.12 10.984 15.12 10.792C15.12 9.544 15.472 8.424 16.176 7.432C16.912 6.408 17.856 5.528 19.008 4.792C20.192 4.024 21.456 3.4 22.8 2.92C24.176 2.408 25.52 2.04 26.832 1.816C28.176 1.56 29.344 1.432 30.336 1.432C31.424 1.432 32.592 1.592 33.84 1.912C35.088 2.2 36.064 2.808 36.768 3.736C36.992 3.384 37.2 3.032 37.392 2.68C37.584 2.296 37.712 1.912 37.776 1.528C37.808 1.368 37.856 1.208 37.92 1.048C37.984 0.855998 38.112 0.759997 38.304 0.759997C38.464 0.759997 38.56 0.855998 38.592 1.048C38.624 1.208 38.64 1.336 38.64 1.432C38.64 1.56 38.56 1.864 38.4 2.344C38.24 2.824 38.064 3.304 37.872 3.784C37.68 4.232 37.552 4.536 37.488 4.696C37.648 4.92 37.824 5.24 38.016 5.656C38.24 6.072 38.352 6.424 38.352 6.712C38.352 6.84 38.32 7.048 38.256 7.336C38.192 7.624 38.08 7.8 37.92 7.864C37.92 7.864 37.808 7.672 37.584 7.288C37.392 6.904 37.264 6.68 37.2 6.616C36.912 7.224 36.624 7.944 36.336 8.776C36.048 9.608 35.68 10.296 35.232 10.84C35.104 10.968 34.96 11.048 34.8 11.08C34.672 11.112 34.528 11.128 34.368 11.128C34.24 11.128 34.016 11.112 33.696 11.08C33.376 11.016 33.072 10.936 32.784 10.84C32.528 10.712 32.4 10.568 32.4 10.408C32.4 10.248 32.544 9.944 32.832 9.496C33.152 9.016 33.52 8.488 33.936 7.912C34.384 7.336 34.8 6.792 35.184 6.28C35.568 5.768 35.824 5.384 35.952 5.128C35.344 4.168 34.48 3.512 33.36 3.16C32.24 2.808 31.136 2.632 30.048 2.632C28.64 2.632 27.184 2.856 25.68 3.304C24.976 3.496 24.176 3.784 23.28 4.168C22.384 4.552 21.504 5.032 20.64 5.608C19.808 6.152 19.104 6.792 18.528 7.528C17.984 8.264 17.712 9.064 17.712 9.928C17.712 10.632 17.936 11.256 18.384 11.8C18.864 12.312 19.456 12.744 20.16 13.096C20.896 13.448 21.632 13.752 22.368 14.008C23.104 14.232 23.728 14.424 24.24 14.584C25.04 14.84 25.952 15.176 26.976 15.592C28 16.008 28.976 16.52 29.904 17.128C30.864 17.736 31.648 18.44 32.256 19.24C32.864 20.04 33.168 20.968 33.168 22.024C33.168 23.08 32.848 24.12 32.208 25.144C31.568 26.136 30.736 27.08 29.712 27.976C28.688 28.872 27.584 29.704 26.4 30.472C25.216 31.208 24.048 31.848 22.896 32.392C21.776 32.968 20.8 33.432 19.968 33.784C18.464 34.392 16.896 34.872 15.264 35.224C13.664 35.608 12.032 35.8 10.368 35.8ZM37.3298 31.384C36.6258 31.384 36.0658 31.256 35.6498 31C35.2658 30.712 35.0738 30.168 35.0738 29.368C35.0738 28.376 35.3298 27.272 35.8418 26.056C36.3858 24.84 37.0258 23.672 37.7617 22.552C38.4978 21.4 39.1858 20.456 39.8258 19.72V19.624C39.8258 18.856 40.1298 18.232 40.7378 17.752C41.3778 17.24 42.1138 16.872 42.9458 16.648C43.7778 16.392 44.4978 16.264 45.1058 16.264C45.9378 16.264 46.6258 16.456 47.1698 16.84C47.7458 17.224 48.0338 17.88 48.0338 18.808C48.0338 19.608 47.8258 20.536 47.4098 21.592C46.9938 22.616 46.4498 23.672 45.7778 24.76C45.1378 25.816 44.4498 26.792 43.7138 27.688C42.9778 28.552 42.3058 29.24 41.6978 29.752C42.1778 30.328 42.8018 30.616 43.5698 30.616C43.6338 30.616 43.7138 30.632 43.8098 30.664C43.9058 30.696 43.9538 30.744 43.9538 30.808C43.9538 30.936 43.8898 31.016 43.7618 31.048C43.6658 31.08 43.5698 31.096 43.4738 31.096C43.0578 31.096 42.6578 31 42.2738 30.808C41.9218 30.584 41.6018 30.312 41.3138 29.992C40.1298 30.92 38.8018 31.384 37.3298 31.384ZM41.2658 29.128C41.9698 28.456 42.6578 27.528 43.3298 26.344C44.0338 25.128 44.6258 23.88 45.1058 22.6C45.5858 21.288 45.8258 20.152 45.8258 19.192C45.8258 18.808 45.7458 18.408 45.5858 17.992C45.4258 17.576 45.0898 17.368 44.5778 17.368C44.1938 17.368 43.8258 17.512 43.4738 17.8C43.1218 18.088 42.8658 18.408 42.7058 18.76C42.7698 18.856 42.8338 18.984 42.8978 19.144C42.9938 19.304 43.0418 19.448 43.0418 19.576C43.0418 19.704 43.0098 19.784 42.9458 19.816C42.5298 20.04 42.1298 20.296 41.7458 20.584C41.3938 20.84 41.0418 21.144 40.6898 21.496C40.5618 21.976 40.4658 22.472 40.4018 22.984C40.3378 23.496 40.3058 24.008 40.3058 24.52C40.3058 25.256 40.3698 26.04 40.4978 26.872C40.6578 27.704 40.9138 28.456 41.2658 29.128ZM39.2498 30.184C39.5698 30.184 39.8578 30.12 40.1138 29.992C40.4018 29.832 40.6578 29.656 40.8818 29.464C40.3698 28.664 40.0018 27.736 39.7778 26.68C39.5538 25.624 39.4418 24.632 39.4418 23.704C39.0258 24.376 38.6418 25.08 38.2898 25.816C37.9378 26.52 37.7617 27.288 37.7617 28.12C37.7617 28.6 37.8578 29.064 38.0498 29.512C38.2738 29.96 38.6738 30.184 39.2498 30.184ZM46.7801 31.72C46.5881 31.72 46.4921 31.64 46.4921 31.48C46.6521 31.224 46.8121 30.968 46.9721 30.712C47.1641 30.456 47.3241 30.216 47.4521 29.992C48.0281 28.872 48.5881 27.752 49.1321 26.632C49.6761 25.512 50.2521 24.408 50.8601 23.32C50.8281 23.128 50.7641 22.872 50.6681 22.552C50.6041 22.232 50.5721 21.992 50.5721 21.832C50.5721 21.416 50.7481 21.128 51.1001 20.968C51.4521 20.776 51.7721 20.648 52.0601 20.584C53.1481 18.12 54.2841 15.688 55.4681 13.288C56.6841 10.888 58.0121 8.568 59.4521 6.328C59.3561 6.136 59.3081 5.912 59.3081 5.656C59.3081 5.592 59.3081 5.528 59.3081 5.464C59.3401 5.4 59.3721 5.336 59.4041 5.272L61.1801 2.536C61.3721 2.344 61.6921 2.2 62.1401 2.104C62.6201 2.008 62.9881 1.96 63.2441 1.96C63.3721 1.96 63.6121 1.992 63.9641 2.056C64.3161 2.088 64.4921 2.216 64.4921 2.44C64.4921 2.472 64.4761 2.504 64.4441 2.536C64.4441 2.568 64.4441 2.584 64.4441 2.584C64.1241 3.096 63.7881 3.592 63.4361 4.072C63.0841 4.552 62.7321 5.032 62.3801 5.512C61.1001 7.432 59.8841 9.4 58.7321 11.416C57.5801 13.4 56.4441 15.4 55.3241 17.416C55.1001 17.864 54.7801 18.472 54.3641 19.24C53.9801 19.976 53.6281 20.728 53.3081 21.496C53.0201 22.232 52.8761 22.856 52.8761 23.368V23.512C53.4841 22.936 54.2681 22.232 55.2281 21.4C56.2201 20.536 57.2121 19.704 58.2041 18.904C59.2281 18.104 60.0761 17.528 60.7481 17.176C61.0041 17.048 61.2921 16.984 61.6121 16.984C61.7401 16.984 61.9001 17.016 62.0921 17.08C62.3161 17.112 62.4281 17.224 62.4281 17.416C62.4281 17.64 62.2841 17.88 61.9961 18.136C61.7081 18.392 61.3881 18.632 61.0361 18.856C60.6841 19.048 60.4281 19.192 60.2681 19.288C59.0841 19.992 57.8521 20.792 56.5721 21.688C55.2921 22.552 54.1401 23.432 53.1161 24.328C53.2121 24.68 53.3721 25.16 53.5961 25.768C53.8521 26.344 54.1561 26.952 54.5081 27.592C54.8601 28.2 55.2281 28.728 55.6121 29.176C56.0281 29.592 56.4441 29.8 56.8601 29.8C57.2761 29.8 57.6281 29.64 57.9161 29.32C58.2361 28.968 58.5081 28.584 58.7321 28.168C58.9881 27.72 59.1961 27.336 59.3561 27.016C59.5161 26.664 59.6441 26.488 59.7401 26.488C59.8041 26.488 59.8361 26.536 59.8361 26.632C59.8681 26.728 59.8841 26.792 59.8841 26.824C59.8841 26.92 59.8521 27.064 59.7881 27.256C59.5961 27.832 59.3721 28.424 59.1161 29.032C58.8601 29.64 58.5081 30.152 58.0601 30.568C57.6441 30.984 57.0681 31.192 56.3321 31.192C55.5641 31.192 54.8601 30.856 54.2201 30.184C53.6121 29.48 53.1161 28.68 52.7321 27.784C52.3481 26.856 52.0921 26.072 51.9641 25.432C51.5481 25.912 51.1481 26.424 50.7641 26.968C50.3801 27.512 50.0121 28.056 49.6601 28.6C49.6601 28.632 49.6601 28.68 49.6601 28.744C49.6921 28.776 49.7081 28.824 49.7081 28.888C49.7081 29.304 49.5481 29.736 49.2281 30.184C48.9401 30.632 48.5721 31 48.1241 31.288C47.6761 31.576 47.2281 31.72 46.7801 31.72ZM63.5254 38.824C62.3734 38.824 61.1894 38.6 59.9734 38.152C58.7574 37.736 57.7334 37.096 56.9014 36.232C56.0694 35.368 55.6534 34.264 55.6534 32.92C55.6534 31.64 56.0374 30.472 56.8054 29.416C57.5414 28.36 58.4854 27.416 59.6374 26.584C60.8214 25.72 62.0374 24.984 63.2854 24.376C64.5334 23.736 65.6534 23.224 66.6454 22.84C69.0134 21.912 71.4774 21.224 74.0374 20.776C76.5974 20.296 79.1414 20.008 81.6694 19.912C84.0054 16.136 86.2454 12.28 88.3894 8.344C88.3574 8.28 88.3414 8.216 88.3414 8.152C88.3414 7.8 88.4694 7.448 88.7254 7.096C89.0134 6.744 89.2534 6.44 89.4454 6.184C88.4214 6.152 87.3814 6.104 86.3254 6.04C85.3014 5.976 84.2774 5.944 83.2534 5.944C81.8774 5.944 80.5334 6.088 79.2214 6.376C78.5814 6.536 77.8134 6.808 76.9174 7.192C76.0214 7.576 75.2374 8.072 74.5654 8.68C73.8934 9.256 73.5574 9.96 73.5574 10.792C73.5574 11.528 73.8294 12.152 74.3734 12.664C74.9494 13.144 75.6374 13.528 76.4374 13.816C77.2694 14.104 78.0854 14.328 78.8854 14.488C79.7174 14.648 80.3894 14.776 80.9014 14.872C80.9654 14.872 81.0454 14.888 81.1414 14.92C81.2694 14.952 81.3334 15.016 81.3334 15.112C81.3334 15.208 81.2534 15.272 81.0934 15.304C80.9654 15.336 80.8694 15.352 80.8054 15.352C80.7734 15.352 80.7094 15.352 80.6134 15.352C80.5494 15.32 80.4854 15.304 80.4214 15.304C79.8134 15.208 78.9814 15.048 77.9254 14.824C76.9014 14.568 75.8454 14.248 74.7574 13.864C73.7014 13.448 72.8054 12.936 72.0694 12.328C71.3334 11.72 70.9654 10.984 70.9654 10.12C70.9654 9.352 71.2534 8.696 71.8294 8.152C72.4054 7.576 73.1094 7.096 73.9414 6.712C74.7734 6.328 75.6054 6.024 76.4374 5.8C77.3014 5.544 78.0214 5.368 78.5974 5.272C80.1974 4.984 81.7974 4.84 83.3974 4.84H83.6374C84.7574 4.84 85.8774 4.856 86.9974 4.888C88.1174 4.92 89.2214 4.936 90.3094 4.936C90.4054 4.776 90.5014 4.6 90.5974 4.408C90.7254 4.216 90.8534 4.056 90.9814 3.928C91.2054 3.672 91.5734 3.48 92.0854 3.352C92.6294 3.192 93.0614 3.112 93.3814 3.112C93.5094 3.112 93.6534 3.128 93.8134 3.16C94.0054 3.192 94.1014 3.288 94.1014 3.448C94.1014 3.576 93.9574 3.816 93.6694 4.168C93.3814 4.52 93.1894 4.76 93.0934 4.888C93.6054 4.856 94.2934 4.824 95.1574 4.792C96.0534 4.728 96.9174 4.616 97.7494 4.456C98.5814 4.264 99.1894 3.976 99.5734 3.592C99.6374 3.528 99.7014 3.464 99.7654 3.4C99.8614 3.336 99.9574 3.304 100.053 3.304C100.149 3.304 100.197 3.336 100.197 3.4C100.197 3.528 100.149 3.64 100.053 3.736C99.5414 4.344 98.8054 4.824 97.8454 5.176C96.8854 5.496 95.8774 5.736 94.8214 5.896C93.7974 6.024 92.9014 6.104 92.1334 6.136C90.5654 8.312 89.1094 10.568 87.7654 12.904C86.4214 15.208 85.0934 17.528 83.7814 19.864H84.5494C84.6774 19.864 84.9174 19.912 85.2694 20.008C85.6534 20.072 85.8454 20.2 85.8454 20.392C85.8454 20.52 85.6534 20.6 85.2694 20.632C84.9174 20.664 84.5334 20.68 84.1174 20.68C83.7014 20.648 83.4454 20.632 83.3494 20.632C82.3574 22.392 81.3174 24.152 80.2294 25.912C79.1734 27.672 78.0374 29.368 76.8214 31C75.7654 32.408 74.5494 33.704 73.1734 34.888C71.8294 36.104 70.3414 37.064 68.7094 37.768C67.1094 38.472 65.3814 38.824 63.5254 38.824ZM63.0454 37.624C64.7414 37.624 66.3414 37.192 67.8454 36.328C69.3814 35.464 70.7894 34.392 72.0694 33.112C73.3494 31.832 74.4534 30.568 75.3814 29.32C76.4054 27.912 77.3974 26.488 78.3574 25.048C79.3494 23.576 80.3094 22.104 81.2374 20.632C78.8374 20.728 76.3894 21.048 73.8934 21.592C71.4294 22.104 69.1094 22.872 66.9334 23.896C66.0694 24.312 65.1254 24.824 64.1014 25.432C63.0774 26.04 62.0854 26.744 61.1254 27.544C60.1974 28.344 59.4294 29.224 58.8214 30.184C58.2134 31.144 57.9094 32.184 57.9094 33.304C57.9094 34.712 58.4374 35.784 59.4934 36.52C60.5494 37.256 61.7334 37.624 63.0454 37.624ZM97.0069 31.384C96.1429 31.384 95.5669 31.048 95.2789 30.376C95.0229 29.672 94.8949 28.968 94.8949 28.264C94.8949 27.336 94.9909 26.408 95.1829 25.48C95.3749 24.552 95.5029 23.624 95.5669 22.696C95.1829 23.176 94.6389 23.864 93.9349 24.76C93.2309 25.624 92.4469 26.536 91.5829 27.496C90.7189 28.424 89.8709 29.208 89.0389 29.848C88.2069 30.488 87.4869 30.808 86.8789 30.808C85.6949 30.808 85.1029 30.184 85.1029 28.936C85.1029 28.104 85.2629 27.256 85.5829 26.392C85.9349 25.496 86.3349 24.632 86.7829 23.8C87.2629 22.936 87.6949 22.152 88.0789 21.448H87.9829C87.7909 21.448 87.6949 21.368 87.6949 21.208C87.6949 21.144 87.6949 21.096 87.6949 21.064C87.7269 21.032 87.7429 21 87.7429 20.968C88.1909 20.2 88.5589 19.544 88.8469 19C89.1349 18.424 89.5189 17.992 89.9989 17.704C90.4789 17.416 91.2149 17.272 92.2069 17.272C92.3669 17.272 92.4469 17.368 92.4469 17.56C92.4469 17.784 92.2709 18.216 91.9189 18.856C91.5669 19.464 91.1829 20.072 90.7669 20.68C90.3509 21.288 90.0629 21.72 89.9029 21.976C89.6469 22.392 89.3269 23.016 88.9429 23.848C88.5589 24.68 88.2069 25.512 87.8869 26.344C87.5989 27.176 87.4549 27.832 87.4549 28.312C87.4549 28.472 87.4709 28.632 87.5029 28.792C87.5669 28.92 87.6949 28.984 87.8869 28.984C88.2069 28.984 88.5749 28.84 88.9909 28.552C89.4069 28.232 89.7269 27.976 89.9509 27.784C91.1989 26.728 92.3509 25.544 93.4069 24.232C94.4629 22.888 95.4229 21.528 96.2869 20.152C96.3829 19.96 96.4309 19.784 96.4309 19.624C96.5269 19.24 96.6709 18.872 96.8629 18.52C97.0549 18.168 97.3109 17.88 97.6309 17.656C97.8869 17.496 98.2389 17.368 98.6869 17.272C99.1349 17.176 99.4869 17.128 99.7429 17.128C99.8709 17.128 100.031 17.16 100.223 17.224C100.415 17.256 100.511 17.352 100.511 17.512C100.511 17.672 100.367 17.928 100.079 18.28C99.8229 18.632 99.5349 18.984 99.2149 19.336C98.9269 19.656 98.7189 19.928 98.5909 20.152C98.3029 20.664 98.0469 21.416 97.8229 22.408C97.5989 23.368 97.4229 24.344 97.2949 25.336C97.1669 26.328 97.1029 27.144 97.1029 27.784C97.1029 28.2 97.1509 28.664 97.2469 29.176C97.3429 29.688 97.6629 29.944 98.2069 29.944C98.7509 29.944 99.2949 29.736 99.8389 29.32C100.415 28.872 100.911 28.44 101.327 28.024C101.743 27.576 101.983 27.352 102.047 27.352C102.079 27.352 102.095 27.384 102.095 27.448C102.095 27.736 101.935 28.072 101.615 28.456C101.295 28.84 100.943 29.208 100.559 29.56C100.207 29.88 99.9349 30.12 99.7429 30.28C99.3589 30.568 98.9269 30.824 98.4469 31.048C97.9669 31.272 97.4869 31.384 97.0069 31.384ZM106.045 15.448C105.949 15.448 105.885 15.336 105.853 15.112C105.853 14.856 105.853 14.696 105.853 14.632C105.853 14.536 105.869 14.328 105.901 14.008C105.933 13.688 106.029 13.512 106.189 13.48C106.637 13.416 107.085 13.336 107.533 13.24C107.981 13.144 108.429 13.032 108.877 12.904C108.941 12.872 109.037 12.856 109.165 12.856C109.325 12.856 109.405 12.936 109.405 13.096C109.405 13.448 109.181 13.816 108.733 14.2C108.317 14.552 107.837 14.856 107.293 15.112C106.781 15.336 106.365 15.448 106.045 15.448ZM102.157 31C100.589 31 99.8048 30.2 99.8048 28.6C99.8048 27.928 99.9008 27.24 100.093 26.536C100.317 25.832 100.557 25.176 100.813 24.568C101.101 23.864 101.421 23.176 101.773 22.504C102.125 21.832 102.477 21.16 102.829 20.488C102.989 20.2 103.133 19.912 103.261 19.624C103.421 19.304 103.581 19 103.741 18.712C103.901 18.488 104.205 18.296 104.653 18.136C105.101 17.976 105.453 17.896 105.709 17.896C105.741 17.896 105.741 17.912 105.709 17.944C105.677 17.944 105.661 17.944 105.661 17.944C105.693 17.944 105.709 17.96 105.709 17.992C105.773 17.928 105.853 17.896 105.949 17.896C106.077 17.896 106.157 17.96 106.189 18.088C106.221 18.184 106.237 18.28 106.237 18.376C106.237 18.6 106.141 18.936 105.949 19.384C105.789 19.832 105.581 20.264 105.325 20.68C105.101 21.064 104.877 21.304 104.653 21.4C104.365 22.072 103.981 22.808 103.501 23.608C103.053 24.408 102.637 25.224 102.253 26.056C101.869 26.856 101.677 27.64 101.677 28.408C101.677 29.304 102.157 29.752 103.117 29.752C103.565 29.752 104.045 29.608 104.557 29.32C105.101 29.032 105.629 28.696 106.141 28.312C106.653 27.896 107.085 27.544 107.437 27.256C107.821 26.968 108.061 26.824 108.157 26.824C108.189 26.824 108.205 26.84 108.205 26.872C108.205 27 108.157 27.144 108.061 27.304C107.965 27.432 107.885 27.528 107.821 27.592C107.437 28.104 106.925 28.632 106.285 29.176C105.645 29.688 104.957 30.12 104.221 30.472C103.517 30.824 102.829 31 102.157 31ZM108.426 31.336C107.722 31.336 107.258 31.224 107.034 31C106.81 30.776 106.698 30.312 106.698 29.608C106.698 29 106.762 28.488 106.89 28.072C107.146 27.208 107.482 26.264 107.898 25.24C108.346 24.184 108.874 23.16 109.482 22.168C110.09 21.176 110.778 20.312 111.546 19.576C112.346 18.84 113.21 18.328 114.138 18.04C114.778 17.848 115.402 17.624 116.01 17.368C116.618 17.08 117.258 16.936 117.93 16.936C118.41 16.936 118.81 17.08 119.13 17.368C119.482 17.656 119.658 18.056 119.658 18.568C119.658 18.952 119.546 19.384 119.322 19.864C119.098 20.344 118.794 20.76 118.41 21.112C118.058 21.432 117.658 21.592 117.21 21.592C117.082 21.592 117.018 21.544 117.018 21.448C117.018 21.352 117.05 21.272 117.114 21.208C117.274 20.92 117.37 20.616 117.402 20.296C117.466 19.944 117.498 19.608 117.498 19.288C117.498 18.968 117.45 18.664 117.354 18.376C117.29 18.056 117.066 17.896 116.682 17.896C116.362 17.896 116.042 17.992 115.722 18.184C115.402 18.344 115.114 18.504 114.858 18.664C114.41 18.984 113.866 19.576 113.226 20.44C112.618 21.272 112.026 22.216 111.45 23.272C110.874 24.296 110.394 25.288 110.01 26.248C109.626 27.208 109.434 27.976 109.434 28.552C109.434 29.672 110.01 30.232 111.162 30.232C111.994 30.232 112.794 30.008 113.562 29.56C114.362 29.112 115.082 28.584 115.722 27.976C116.394 27.368 116.938 26.84 117.354 26.392C117.77 25.944 118.01 25.72 118.074 25.72C118.202 25.72 118.266 25.784 118.266 25.912C118.266 26.296 118.026 26.744 117.546 27.256C117.098 27.768 116.746 28.152 116.49 28.408C115.338 29.272 114.058 29.976 112.65 30.52C111.274 31.064 109.866 31.336 108.426 31.336ZM119.677 31.336C118.973 31.336 118.509 31.224 118.285 31C118.061 30.776 117.949 30.312 117.949 29.608C117.949 28.84 118.125 27.96 118.477 26.968C118.861 25.976 119.213 25.144 119.533 24.472C119.533 24.44 119.517 24.424 119.485 24.424C119.485 24.392 119.485 24.36 119.485 24.328C119.485 24.168 119.533 24.04 119.629 23.944C119.757 23.848 119.853 23.752 119.917 23.656C120.077 23.4 120.221 23.144 120.349 22.888C120.477 22.632 120.605 22.392 120.733 22.168C121.277 21.304 121.933 20.472 122.701 19.672C123.501 18.872 124.397 18.328 125.389 18.04C125.741 17.944 126.077 17.896 126.397 17.896C126.461 17.896 126.525 17.912 126.589 17.944C126.685 17.944 126.733 17.976 126.733 18.04C126.733 18.136 126.637 18.248 126.445 18.376C126.285 18.504 126.173 18.6 126.109 18.664C125.597 19.08 125.037 19.72 124.429 20.584C123.853 21.448 123.389 22.152 123.037 22.696C123.773 22.568 124.493 22.472 125.197 22.408C125.933 22.344 126.653 22.344 127.357 22.408C127.709 21.896 128.029 21.272 128.317 20.536C128.637 19.768 128.797 19.064 128.797 18.424C128.797 18.072 128.749 17.864 128.653 17.8C128.589 17.736 128.413 17.704 128.125 17.704C128.061 17.704 127.965 17.688 127.837 17.656C127.709 17.624 127.645 17.56 127.645 17.464C127.645 17.336 127.789 17.224 128.077 17.128C128.365 17.032 128.669 16.968 128.989 16.936C129.309 16.872 129.517 16.84 129.613 16.84C130.477 16.84 130.909 17.24 130.909 18.04C130.909 18.488 130.765 19.032 130.477 19.672C130.221 20.28 129.885 20.856 129.469 21.4C129.085 21.912 128.701 22.28 128.317 22.504C128.413 22.504 128.605 22.552 128.893 22.648C129.213 22.712 129.501 22.792 129.757 22.888C130.045 22.984 130.189 23.096 130.189 23.224C130.189 23.32 130.093 23.384 129.901 23.416C129.709 23.416 129.581 23.416 129.517 23.416C129.229 23.416 128.941 23.4 128.653 23.368C128.365 23.304 128.077 23.272 127.789 23.272C126.893 23.272 125.981 23.336 125.053 23.464C124.157 23.592 123.261 23.752 122.365 23.944C122.045 24.52 121.677 25.256 121.261 26.152C120.877 27.048 120.685 27.848 120.685 28.552C120.685 29.672 121.261 30.232 122.413 30.232C123.245 30.232 124.045 30.008 124.813 29.56C125.613 29.112 126.349 28.584 127.021 27.976C127.693 27.368 128.237 26.84 128.653 26.392C129.069 25.944 129.309 25.72 129.373 25.72C129.469 25.72 129.517 25.784 129.517 25.912C129.517 26.296 129.293 26.76 128.845 27.304C128.397 27.816 128.029 28.184 127.741 28.408C126.621 29.272 125.357 29.976 123.949 30.52C122.573 31.064 121.149 31.336 119.677 31.336Z" fill="white"/>
</svg>
